<svg xmlns="http://www.w3.org/2000/svg" xmlns:xlink="http://www.w3.org/1999/xlink" width="500" zoomAndPan="magnify" viewBox="0 0 375 374.999991" height="500" preserveAspectRatio="xMidYMid meet" version="1.0"><defs><g/></defs><g fill="#254e7a" fill-opacity="1"><g transform="translate(12.439457, 208.23507)"><g><path d="M 13.84375 -36.09375 C 11.863281 -33.644531 10.445312 -31.007812 9.59375 -28.1875 C 8.75 -25.363281 8.234375 -22.46875 8.046875 -19.5 C 8.140625 -17.144531 8.5625 -14.953125 9.3125 -12.921875 C 10.070312 -10.898438 11.273438 -9.066406 12.921875 -7.421875 C 13.535156 -6.847656 14.207031 -6.421875 14.9375 -6.140625 C 15.664062 -5.859375 16.457031 -5.625 17.3125 -5.4375 C 19.664062 -4.914062 21.757812 -5.019531 23.59375 -5.75 C 25.425781 -6.488281 27.050781 -7.796875 28.46875 -9.671875 L 31.21875 -13.203125 C 31.457031 -13.492188 31.671875 -13.789062 31.859375 -14.09375 C 32.046875 -14.394531 32.234375 -14.664062 32.421875 -14.90625 C 33.410156 -16.03125 34.375 -16.289062 35.3125 -15.6875 C 36.257812 -15.070312 36.546875 -14.101562 36.171875 -12.78125 C 35.597656 -10.945312 34.796875 -9.273438 33.765625 -7.765625 C 32.734375 -6.265625 31.53125 -4.878906 30.15625 -3.609375 C 27.570312 -1.253906 24.796875 0.0703125 21.828125 0.375 C 18.859375 0.6875 15.84375 0.328125 12.78125 -0.703125 C 10.707031 -1.410156 8.960938 -2.578125 7.546875 -4.203125 C 6.140625 -5.828125 5.035156 -7.648438 4.234375 -9.671875 C 2.640625 -14.148438 2.050781 -18.554688 2.46875 -22.890625 C 2.894531 -27.222656 4.257812 -31.414062 6.5625 -35.46875 C 7.550781 -37.15625 8.679688 -38.785156 9.953125 -40.359375 C 11.234375 -41.941406 12.601562 -43.394531 14.0625 -44.71875 C 15.613281 -46.175781 17.351562 -47.375 19.28125 -48.3125 C 21.21875 -49.257812 23.269531 -49.800781 25.4375 -49.9375 C 29.195312 -50.175781 32.289062 -49.222656 34.71875 -47.078125 C 37.144531 -44.941406 38.378906 -41.847656 38.421875 -37.796875 C 38.421875 -35.535156 38.113281 -33.320312 37.5 -31.15625 C 36.894531 -28.988281 35.882812 -26.9375 34.46875 -25 C 34.28125 -24.769531 34.066406 -24.523438 33.828125 -24.265625 C 33.597656 -24.003906 33.363281 -23.753906 33.125 -23.515625 C 32.46875 -22.910156 31.691406 -22.796875 30.796875 -23.171875 C 30.367188 -23.398438 30.023438 -23.738281 29.765625 -24.1875 C 29.515625 -24.632812 29.4375 -25.097656 29.53125 -25.578125 C 29.71875 -26.234375 29.925781 -26.890625 30.15625 -27.546875 C 30.394531 -28.203125 30.609375 -28.835938 30.796875 -29.453125 C 31.128906 -30.441406 31.457031 -31.421875 31.78125 -32.390625 C 32.113281 -33.359375 32.398438 -34.332031 32.640625 -35.3125 C 33.054688 -37.007812 32.960938 -38.78125 32.359375 -40.625 C 31.785156 -42.269531 30.835938 -43.492188 29.515625 -44.296875 C 28.203125 -45.097656 26.675781 -45.304688 24.9375 -44.921875 C 23.757812 -44.691406 22.675781 -44.257812 21.6875 -43.625 C 20.695312 -42.988281 19.78125 -42.289062 18.9375 -41.53125 C 18.039062 -40.6875 17.164062 -39.816406 16.3125 -38.921875 C 15.46875 -38.023438 14.644531 -37.082031 13.84375 -36.09375 Z M 13.84375 -36.09375 "/></g></g></g><g fill="#254e7a" fill-opacity="1"><g transform="translate(53.686684, 208.23507)"><g><path d="M 23.453125 -4.03125 C 23.265625 -5.34375 23.085938 -6.644531 22.921875 -7.9375 C 22.753906 -9.238281 22.554688 -10.617188 22.328125 -12.078125 C 20.859375 -12.453125 19.414062 -12.628906 18 -12.609375 C 16.59375 -12.585938 15.207031 -12.503906 13.84375 -12.359375 C 11.914062 -12.171875 10.46875 -12.050781 9.5 -12 C 8.53125 -11.957031 7.796875 -11.796875 7.296875 -11.515625 C 6.804688 -11.234375 6.335938 -10.679688 5.890625 -9.859375 C 5.453125 -9.035156 4.785156 -7.75 3.890625 -6 C 3.554688 -5.289062 3.117188 -4.617188 2.578125 -3.984375 C 2.035156 -3.347656 1.503906 -2.726562 0.984375 -2.125 C 0.234375 -1.269531 -0.632812 -1.101562 -1.625 -1.625 C -2.238281 -1.90625 -2.722656 -2.304688 -3.078125 -2.828125 C -3.429688 -3.347656 -3.535156 -3.910156 -3.390625 -4.515625 C -3.242188 -5.410156 -2.9375 -6.332031 -2.46875 -7.28125 C -0.632812 -10.945312 1.1875 -14.628906 3 -18.328125 C 4.8125 -22.023438 6.734375 -25.664062 8.765625 -29.25 C 10.359375 -32.164062 12.070312 -35.035156 13.90625 -37.859375 C 15.75 -40.691406 17.539062 -43.519531 19.28125 -46.34375 C 19.519531 -46.757812 19.789062 -47.15625 20.09375 -47.53125 C 20.40625 -47.914062 20.75 -48.269531 21.125 -48.59375 C 21.738281 -49.113281 22.457031 -49.375 23.28125 -49.375 C 24.101562 -49.375 24.832031 -49.140625 25.46875 -48.671875 C 26.101562 -48.203125 26.46875 -47.539062 26.5625 -46.6875 C 26.695312 -45.601562 26.835938 -44.507812 26.984375 -43.40625 C 27.128906 -42.300781 27.222656 -41.207031 27.265625 -40.125 C 27.503906 -37.488281 27.703125 -34.828125 27.859375 -32.140625 C 28.023438 -29.453125 28.203125 -26.789062 28.390625 -24.15625 C 28.484375 -22.789062 28.585938 -21.425781 28.703125 -20.0625 C 28.828125 -18.695312 28.960938 -17.332031 29.109375 -15.96875 C 29.203125 -14.601562 29.316406 -13.234375 29.453125 -11.859375 C 29.597656 -10.492188 29.691406 -9.128906 29.734375 -7.765625 C 29.828125 -6.867188 29.847656 -5.972656 29.796875 -5.078125 C 29.753906 -4.191406 29.6875 -3.320312 29.59375 -2.46875 C 29.40625 -0.96875 28.441406 -0.171875 26.703125 -0.078125 C 25.285156 -0.078125 24.34375 -0.734375 23.875 -2.046875 C 23.6875 -2.660156 23.546875 -3.320312 23.453125 -4.03125 Z M 10.8125 -18.4375 C 12.738281 -18.582031 14.5625 -18.710938 16.28125 -18.828125 C 18 -18.941406 19.679688 -19.070312 21.328125 -19.21875 C 21.609375 -20.675781 21.703125 -22.863281 21.609375 -25.78125 C 21.515625 -28.695312 21.234375 -31.972656 20.765625 -35.609375 C 20.722656 -35.703125 20.628906 -35.78125 20.484375 -35.84375 C 20.347656 -35.914062 20.179688 -36 19.984375 -36.09375 C 18.335938 -33.3125 16.722656 -30.472656 15.140625 -27.578125 C 13.566406 -24.679688 12.125 -21.632812 10.8125 -18.4375 Z M 10.8125 -18.4375 "/></g></g></g><g fill="#254e7a" fill-opacity="1"><g transform="translate(89.989894, 208.23507)"><g><path d="M 13.421875 -34.265625 C 12.898438 -32.097656 12.367188 -29.914062 11.828125 -27.71875 C 11.285156 -25.53125 10.734375 -23.332031 10.171875 -21.125 C 9.835938 -19.664062 9.457031 -18.21875 9.03125 -16.78125 C 8.613281 -15.34375 8.21875 -13.867188 7.84375 -12.359375 C 7.414062 -10.859375 7 -9.351562 6.59375 -7.84375 C 6.195312 -6.332031 5.8125 -4.800781 5.4375 -3.25 C 5.007812 -1.695312 3.953125 -0.78125 2.265625 -0.5 C 1.460938 -0.40625 0.800781 -0.546875 0.28125 -0.921875 C -0.238281 -1.296875 -0.472656 -1.90625 -0.421875 -2.75 C -0.328125 -4.019531 -0.195312 -5.300781 -0.03125 -6.59375 C 0.132812 -7.894531 0.378906 -9.179688 0.703125 -10.453125 C 2.640625 -17.890625 4.617188 -25.304688 6.640625 -32.703125 C 7.296875 -34.960938 7.976562 -37.195312 8.6875 -39.40625 C 9.394531 -41.625 10.101562 -43.84375 10.8125 -46.0625 C 10.945312 -46.53125 11.144531 -46.960938 11.40625 -47.359375 C 11.664062 -47.765625 11.890625 -48.203125 12.078125 -48.671875 C 12.359375 -48.765625 12.640625 -48.832031 12.921875 -48.875 C 13.203125 -48.925781 13.460938 -48.953125 13.703125 -48.953125 C 14.742188 -48.953125 15.519531 -48.878906 16.03125 -48.734375 C 16.550781 -48.597656 16.953125 -48.296875 17.234375 -47.828125 C 17.515625 -47.359375 17.773438 -46.628906 18.015625 -45.640625 C 18.816406 -42.429688 19.566406 -39.222656 20.265625 -36.015625 C 20.972656 -32.816406 21.707031 -29.617188 22.46875 -26.421875 C 22.65625 -25.617188 22.816406 -24.804688 22.953125 -23.984375 C 23.097656 -23.160156 23.265625 -22.347656 23.453125 -21.546875 C 23.546875 -21.304688 23.660156 -21.066406 23.796875 -20.828125 C 23.941406 -20.597656 24.109375 -20.296875 24.296875 -19.921875 C 25.097656 -20.765625 25.769531 -21.625 26.3125 -22.5 C 26.851562 -23.375 27.40625 -24.234375 27.96875 -25.078125 C 29.945312 -28.140625 31.910156 -31.203125 33.859375 -34.265625 C 35.816406 -37.328125 37.785156 -40.363281 39.765625 -43.375 C 40.140625 -43.9375 40.550781 -44.488281 41 -45.03125 C 41.445312 -45.570312 41.863281 -46.125 42.25 -46.6875 C 43.09375 -47.957031 44.113281 -48.628906 45.3125 -48.703125 C 46.519531 -48.773438 47.734375 -48.765625 48.953125 -48.671875 C 49.472656 -48.671875 49.875 -48.457031 50.15625 -48.03125 C 50.4375 -47.613281 50.601562 -47.144531 50.65625 -46.625 C 50.75 -46.25 50.78125 -45.847656 50.75 -45.421875 C 50.726562 -44.992188 50.671875 -44.570312 50.578125 -44.15625 C 50.296875 -42.59375 49.988281 -41.046875 49.65625 -39.515625 C 49.332031 -37.992188 49.023438 -36.453125 48.734375 -34.890625 C 48.316406 -32.585938 47.882812 -30.289062 47.4375 -28 C 46.988281 -25.71875 46.625 -23.425781 46.34375 -21.125 C 46.007812 -18.300781 45.546875 -15.519531 44.953125 -12.78125 C 44.367188 -10.050781 43.703125 -7.320312 42.953125 -4.59375 C 42.671875 -3.550781 42.148438 -2.585938 41.390625 -1.703125 C 40.585938 -0.617188 39.484375 -0.3125 38.078125 -0.78125 C 37.703125 -0.914062 37.347656 -1.113281 37.015625 -1.375 C 36.679688 -1.632812 36.492188 -2 36.453125 -2.46875 C 36.398438 -2.988281 36.363281 -3.53125 36.34375 -4.09375 C 36.320312 -4.65625 36.332031 -5.175781 36.375 -5.65625 C 36.800781 -7.914062 37.25 -10.148438 37.71875 -12.359375 C 38.1875 -14.578125 38.632812 -16.789062 39.0625 -19 C 39.488281 -21.03125 39.890625 -23.054688 40.265625 -25.078125 C 40.640625 -27.097656 40.992188 -29.125 41.328125 -31.15625 C 41.460938 -31.90625 41.625 -32.664062 41.8125 -33.4375 C 42.007812 -34.21875 42.222656 -35.175781 42.453125 -36.3125 C 41.929688 -35.789062 41.503906 -35.390625 41.171875 -35.109375 C 40.847656 -34.828125 40.59375 -34.546875 40.40625 -34.265625 C 39.601562 -32.847656 38.800781 -31.410156 38 -29.953125 C 37.195312 -28.492188 36.375 -27.054688 35.53125 -25.640625 C 34.5 -23.941406 33.460938 -22.242188 32.421875 -20.546875 C 31.390625 -18.859375 30.304688 -17.191406 29.171875 -15.546875 C 28.460938 -14.554688 27.707031 -13.585938 26.90625 -12.640625 C 26.113281 -11.703125 25.289062 -10.785156 24.4375 -9.890625 C 23.6875 -9.140625 22.875 -8.820312 22 -8.9375 C 21.132812 -9.050781 20.441406 -9.554688 19.921875 -10.453125 C 19.453125 -11.253906 19.023438 -12.113281 18.640625 -13.03125 C 18.265625 -13.945312 17.960938 -14.851562 17.734375 -15.75 C 17.265625 -17.96875 16.828125 -20.191406 16.421875 -22.421875 C 16.023438 -24.660156 15.613281 -26.890625 15.1875 -29.109375 C 15.039062 -30.003906 14.875 -30.875 14.6875 -31.71875 C 14.5 -32.5625 14.3125 -33.429688 14.125 -34.328125 Z M 13.421875 -34.265625 "/></g></g></g><g fill="#254e7a" fill-opacity="1"><g transform="translate(141.760821, 208.23507)"><g><path d="M 13.84375 -21.6875 C 13.414062 -21.875 13.003906 -22.117188 12.609375 -22.421875 C 12.210938 -22.734375 11.726562 -23.050781 11.15625 -23.375 C 10.875 -22.53125 10.613281 -21.742188 10.375 -21.015625 C 10.144531 -20.285156 9.9375 -19.566406 9.75 -18.859375 C 9.320312 -17.492188 8.90625 -16.113281 8.5 -14.71875 C 8.101562 -13.332031 7.71875 -11.957031 7.34375 -10.59375 C 7.207031 -10.070312 7.078125 -9.53125 6.953125 -8.96875 C 6.835938 -8.40625 6.753906 -7.863281 6.703125 -7.34375 C 6.660156 -6.257812 6.40625 -5.257812 5.9375 -4.34375 C 5.46875 -3.425781 5.019531 -2.492188 4.59375 -1.546875 C 4.5 -1.359375 4.34375 -1.171875 4.125 -0.984375 C 3.914062 -0.796875 3.695312 -0.609375 3.46875 -0.421875 C 3.082031 -0.0859375 2.65625 0.03125 2.1875 -0.0625 C 1.71875 -0.164062 1.296875 -0.40625 0.921875 -0.78125 C 0.453125 -1.289062 0.179688 -1.835938 0.109375 -2.421875 C 0.0351562 -3.015625 0.0234375 -3.617188 0.078125 -4.234375 C 0.492188 -7.160156 0.992188 -10.054688 1.578125 -12.921875 C 2.171875 -15.796875 2.820312 -18.671875 3.53125 -21.546875 C 4.1875 -24.179688 4.84375 -26.78125 5.5 -29.34375 C 6.164062 -31.914062 6.851562 -34.5 7.5625 -37.09375 C 8.03125 -38.6875 8.535156 -40.257812 9.078125 -41.8125 C 9.617188 -43.375 10.195312 -44.90625 10.8125 -46.40625 C 11.226562 -47.539062 11.765625 -48.285156 12.421875 -48.640625 C 13.085938 -48.992188 14.035156 -49.171875 15.265625 -49.171875 C 16.671875 -49.171875 18.09375 -49.203125 19.53125 -49.265625 C 20.96875 -49.335938 22.414062 -49.375 23.875 -49.375 C 24.914062 -49.375 25.941406 -49.375 26.953125 -49.375 C 27.960938 -49.375 28.984375 -49.328125 30.015625 -49.234375 C 32.273438 -49.046875 34.09375 -47.941406 35.46875 -45.921875 C 37.019531 -43.847656 37.910156 -41.75 38.140625 -39.625 C 38.378906 -37.507812 38.179688 -35.484375 37.546875 -33.546875 C 36.910156 -31.617188 36.023438 -29.878906 34.890625 -28.328125 C 32.679688 -25.316406 30.046875 -23.1875 26.984375 -21.9375 C 23.921875 -20.6875 20.554688 -20.226562 16.890625 -20.5625 C 16.367188 -20.601562 15.847656 -20.738281 15.328125 -20.96875 C 14.804688 -21.207031 14.3125 -21.445312 13.84375 -21.6875 Z M 15.96875 -43.234375 C 15.207031 -40.785156 14.484375 -38.335938 13.796875 -35.890625 C 13.117188 -33.441406 12.546875 -30.875 12.078125 -28.1875 C 12.597656 -28 13.046875 -27.878906 13.421875 -27.828125 C 13.796875 -27.785156 14.101562 -27.644531 14.34375 -27.40625 C 15.375 -26.65625 16.453125 -26.253906 17.578125 -26.203125 C 18.710938 -26.160156 19.867188 -26.113281 21.046875 -26.0625 C 23.171875 -26.0625 25.046875 -26.578125 26.671875 -27.609375 C 28.296875 -28.648438 29.613281 -30.003906 30.625 -31.671875 C 31.632812 -33.347656 32.28125 -35.082031 32.5625 -36.875 C 32.75 -37.90625 32.664062 -38.867188 32.3125 -39.765625 C 31.957031 -40.660156 31.476562 -41.488281 30.875 -42.25 C 30.351562 -42.90625 29.738281 -43.289062 29.03125 -43.40625 C 28.320312 -43.519531 27.566406 -43.578125 26.765625 -43.578125 C 26.160156 -43.578125 25.550781 -43.597656 24.9375 -43.640625 C 24.320312 -43.691406 23.6875 -43.71875 23.03125 -43.71875 C 21.894531 -43.675781 20.738281 -43.664062 19.5625 -43.6875 C 18.382812 -43.707031 17.1875 -43.554688 15.96875 -43.234375 Z M 15.96875 -43.234375 "/></g></g></g><g fill="#82c2e6" fill-opacity="1"><g transform="translate(178.705075, 208.23507)"><g><path d="M -0.984375 -11.015625 C -0.753906 -11.679688 -0.378906 -12.175781 0.140625 -12.5 C 0.660156 -12.832031 1.226562 -13.113281 1.84375 -13.34375 C 2.632812 -13.0625 3.242188 -12.707031 3.671875 -12.28125 C 4.097656 -11.863281 4.453125 -11.347656 4.734375 -10.734375 C 5.816406 -8.429688 7.171875 -6.84375 8.796875 -5.96875 C 10.421875 -5.09375 12.457031 -4.847656 14.90625 -5.234375 C 16.507812 -5.460938 17.898438 -6.117188 19.078125 -7.203125 C 20.253906 -8.285156 21.097656 -9.578125 21.609375 -11.078125 C 22.128906 -12.585938 22.175781 -14.125 21.75 -15.6875 C 21.332031 -17.1875 20.675781 -18.535156 19.78125 -19.734375 C 18.882812 -20.941406 17.820312 -22.015625 16.59375 -22.953125 C 15.707031 -23.617188 14.835938 -24.289062 13.984375 -24.96875 C 13.140625 -25.65625 12.289062 -26.328125 11.4375 -26.984375 C 9.269531 -28.773438 7.878906 -30.8125 7.265625 -33.09375 C 6.660156 -35.375 6.675781 -37.65625 7.3125 -39.9375 C 7.945312 -42.226562 9.0625 -44.265625 10.65625 -46.046875 C 12.257812 -47.835938 14.191406 -49.113281 16.453125 -49.875 C 19.140625 -50.769531 21.695312 -51.039062 24.125 -50.6875 C 26.550781 -50.332031 28.820312 -49.117188 30.9375 -47.046875 C 31.925781 -46.054688 32.582031 -44.984375 32.90625 -43.828125 C 33.238281 -42.679688 33.429688 -41.492188 33.484375 -40.265625 C 33.523438 -39.648438 33.347656 -39.15625 32.953125 -38.78125 C 32.554688 -38.40625 32.097656 -38.097656 31.578125 -37.859375 C 30.734375 -37.484375 29.976562 -37.671875 29.3125 -38.421875 C 28.988281 -38.804688 28.632812 -39.21875 28.25 -39.65625 C 27.875 -40.101562 27.59375 -40.566406 27.40625 -41.046875 C 26.9375 -42.410156 26.113281 -43.410156 24.9375 -44.046875 C 23.757812 -44.679688 22.460938 -44.984375 21.046875 -44.953125 C 19.640625 -44.929688 18.347656 -44.640625 17.171875 -44.078125 C 15.796875 -43.421875 14.765625 -42.410156 14.078125 -41.046875 C 13.398438 -39.679688 13.117188 -38.242188 13.234375 -36.734375 C 13.359375 -35.222656 13.914062 -33.878906 14.90625 -32.703125 C 15.46875 -32.085938 16.101562 -31.5 16.8125 -30.9375 C 17.519531 -30.375 18.226562 -29.8125 18.9375 -29.25 C 20.15625 -28.300781 21.363281 -27.320312 22.5625 -26.3125 C 23.769531 -25.300781 24.820312 -24.085938 25.71875 -22.671875 C 27.40625 -19.941406 28.34375 -17.164062 28.53125 -14.34375 C 28.726562 -11.519531 28.023438 -8.71875 26.421875 -5.9375 C 25.097656 -3.675781 23.445312 -1.882812 21.46875 -0.5625 C 19.5 0.75 17.125 1.40625 14.34375 1.40625 C 13.78125 1.40625 13.226562 1.40625 12.6875 1.40625 C 12.144531 1.40625 11.585938 1.382812 11.015625 1.34375 C 8.285156 1.25 5.882812 0.414062 3.8125 -1.15625 C 1.738281 -2.738281 0.234375 -4.828125 -0.703125 -7.421875 C -0.890625 -8.023438 -1.03125 -8.625 -1.125 -9.21875 C -1.21875 -9.8125 -1.171875 -10.410156 -0.984375 -11.015625 Z M -0.984375 -11.015625 "/></g></g></g><g fill="#82c2e6" fill-opacity="1"><g transform="translate(213.030676, 208.23507)"><g><path d="M 13.78125 -36.09375 C 11.800781 -33.644531 10.382812 -31.007812 9.53125 -28.1875 C 8.6875 -25.363281 8.191406 -22.46875 8.046875 -19.5 C 8.140625 -17.144531 8.5625 -14.953125 9.3125 -12.921875 C 10.070312 -10.898438 11.273438 -9.066406 12.921875 -7.421875 C 13.535156 -6.847656 14.207031 -6.421875 14.9375 -6.140625 C 15.664062 -5.859375 16.429688 -5.625 17.234375 -5.4375 C 19.640625 -4.914062 21.75 -5.019531 23.5625 -5.75 C 25.375 -6.488281 26.984375 -7.796875 28.390625 -9.671875 C 28.867188 -10.285156 29.34375 -10.875 29.8125 -11.4375 C 30.28125 -12.007812 30.726562 -12.597656 31.15625 -13.203125 C 31.382812 -13.492188 31.59375 -13.789062 31.78125 -14.09375 C 31.976562 -14.394531 32.171875 -14.664062 32.359375 -14.90625 C 33.347656 -16.03125 34.3125 -16.289062 35.25 -15.6875 C 36.238281 -15.070312 36.519531 -14.101562 36.09375 -12.78125 C 35.570312 -10.945312 34.796875 -9.273438 33.765625 -7.765625 C 32.734375 -6.265625 31.507812 -4.878906 30.09375 -3.609375 C 27.5 -1.253906 24.726562 0.0703125 21.78125 0.375 C 18.84375 0.6875 15.84375 0.328125 12.78125 -0.703125 C 10.664062 -1.410156 8.910156 -2.578125 7.515625 -4.203125 C 6.128906 -5.828125 5.035156 -7.648438 4.234375 -9.671875 C 2.585938 -14.148438 1.988281 -18.554688 2.4375 -22.890625 C 2.882812 -27.222656 4.257812 -31.414062 6.5625 -35.46875 C 8.59375 -38.90625 11.066406 -41.988281 13.984375 -44.71875 C 15.535156 -46.175781 17.289062 -47.375 19.25 -48.3125 C 21.207031 -49.257812 23.269531 -49.800781 25.4375 -49.9375 C 29.195312 -50.175781 32.273438 -49.222656 34.671875 -47.078125 C 37.078125 -44.941406 38.304688 -41.847656 38.359375 -37.796875 C 38.398438 -35.535156 38.101562 -33.320312 37.46875 -31.15625 C 36.832031 -28.988281 35.8125 -26.9375 34.40625 -25 C 34.21875 -24.769531 34.003906 -24.523438 33.765625 -24.265625 C 33.523438 -24.003906 33.289062 -23.753906 33.0625 -23.515625 C 32.445312 -22.910156 31.691406 -22.796875 30.796875 -23.171875 C 30.328125 -23.398438 29.960938 -23.738281 29.703125 -24.1875 C 29.441406 -24.632812 29.382812 -25.097656 29.53125 -25.578125 C 29.71875 -26.234375 29.925781 -26.890625 30.15625 -27.546875 C 30.394531 -28.203125 30.609375 -28.835938 30.796875 -29.453125 C 31.078125 -30.441406 31.382812 -31.421875 31.71875 -32.390625 C 32.050781 -33.359375 32.332031 -34.332031 32.5625 -35.3125 C 32.988281 -37.007812 32.894531 -38.78125 32.28125 -40.625 C 31.757812 -42.269531 30.828125 -43.492188 29.484375 -44.296875 C 28.148438 -45.097656 26.632812 -45.304688 24.9375 -44.921875 C 23.757812 -44.691406 22.675781 -44.257812 21.6875 -43.625 C 20.695312 -42.988281 19.753906 -42.289062 18.859375 -41.53125 C 17.960938 -40.6875 17.085938 -39.816406 16.234375 -38.921875 C 15.390625 -38.023438 14.570312 -37.082031 13.78125 -36.09375 Z M 13.78125 -36.09375 "/></g></g></g><g fill="#82c2e6" fill-opacity="1"><g transform="translate(254.348537, 208.23507)"><g><path d="M 23.453125 -4.03125 C 23.265625 -5.34375 23.085938 -6.644531 22.921875 -7.9375 C 22.753906 -9.238281 22.554688 -10.617188 22.328125 -12.078125 C 20.859375 -12.453125 19.414062 -12.628906 18 -12.609375 C 16.59375 -12.585938 15.207031 -12.503906 13.84375 -12.359375 C 11.914062 -12.171875 10.46875 -12.050781 9.5 -12 C 8.53125 -11.957031 7.796875 -11.796875 7.296875 -11.515625 C 6.804688 -11.234375 6.335938 -10.679688 5.890625 -9.859375 C 5.453125 -9.035156 4.785156 -7.75 3.890625 -6 C 3.554688 -5.289062 3.117188 -4.617188 2.578125 -3.984375 C 2.035156 -3.347656 1.503906 -2.726562 0.984375 -2.125 C 0.234375 -1.269531 -0.632812 -1.101562 -1.625 -1.625 C -2.238281 -1.90625 -2.722656 -2.304688 -3.078125 -2.828125 C -3.429688 -3.347656 -3.535156 -3.910156 -3.390625 -4.515625 C -3.242188 -5.410156 -2.9375 -6.332031 -2.46875 -7.28125 C -0.632812 -10.945312 1.1875 -14.628906 3 -18.328125 C 4.8125 -22.023438 6.734375 -25.664062 8.765625 -29.25 C 10.359375 -32.164062 12.070312 -35.035156 13.90625 -37.859375 C 15.75 -40.691406 17.539062 -43.519531 19.28125 -46.34375 C 19.519531 -46.757812 19.789062 -47.15625 20.09375 -47.53125 C 20.40625 -47.914062 20.75 -48.269531 21.125 -48.59375 C 21.738281 -49.113281 22.457031 -49.375 23.28125 -49.375 C 24.101562 -49.375 24.832031 -49.140625 25.46875 -48.671875 C 26.101562 -48.203125 26.46875 -47.539062 26.5625 -46.6875 C 26.695312 -45.601562 26.835938 -44.507812 26.984375 -43.40625 C 27.128906 -42.300781 27.222656 -41.207031 27.265625 -40.125 C 27.503906 -37.488281 27.703125 -34.828125 27.859375 -32.140625 C 28.023438 -29.453125 28.203125 -26.789062 28.390625 -24.15625 C 28.484375 -22.789062 28.585938 -21.425781 28.703125 -20.0625 C 28.828125 -18.695312 28.960938 -17.332031 29.109375 -15.96875 C 29.203125 -14.601562 29.316406 -13.234375 29.453125 -11.859375 C 29.597656 -10.492188 29.691406 -9.128906 29.734375 -7.765625 C 29.828125 -6.867188 29.847656 -5.972656 29.796875 -5.078125 C 29.753906 -4.191406 29.6875 -3.320312 29.59375 -2.46875 C 29.40625 -0.96875 28.441406 -0.171875 26.703125 -0.078125 C 25.285156 -0.078125 24.34375 -0.734375 23.875 -2.046875 C 23.6875 -2.660156 23.546875 -3.320312 23.453125 -4.03125 Z M 10.8125 -18.4375 C 12.738281 -18.582031 14.5625 -18.710938 16.28125 -18.828125 C 18 -18.941406 19.679688 -19.070312 21.328125 -19.21875 C 21.609375 -20.675781 21.703125 -22.863281 21.609375 -25.78125 C 21.515625 -28.695312 21.234375 -31.972656 20.765625 -35.609375 C 20.722656 -35.703125 20.628906 -35.78125 20.484375 -35.84375 C 20.347656 -35.914062 20.179688 -36 19.984375 -36.09375 C 18.335938 -33.3125 16.722656 -30.472656 15.140625 -27.578125 C 13.566406 -24.679688 12.125 -21.632812 10.8125 -18.4375 Z M 10.8125 -18.4375 "/></g></g></g><g fill="#82c2e6" fill-opacity="1"><g transform="translate(290.651746, 208.23507)"><g><path d="M 13.84375 -21.6875 C 13.414062 -21.875 13.003906 -22.117188 12.609375 -22.421875 C 12.210938 -22.734375 11.726562 -23.050781 11.15625 -23.375 C 10.875 -22.53125 10.613281 -21.742188 10.375 -21.015625 C 10.144531 -20.285156 9.9375 -19.566406 9.75 -18.859375 C 9.320312 -17.492188 8.90625 -16.113281 8.5 -14.71875 C 8.101562 -13.332031 7.71875 -11.957031 7.34375 -10.59375 C 7.207031 -10.070312 7.078125 -9.53125 6.953125 -8.96875 C 6.835938 -8.40625 6.753906 -7.863281 6.703125 -7.34375 C 6.660156 -6.257812 6.40625 -5.257812 5.9375 -4.34375 C 5.46875 -3.425781 5.019531 -2.492188 4.59375 -1.546875 C 4.5 -1.359375 4.34375 -1.171875 4.125 -0.984375 C 3.914062 -0.796875 3.695312 -0.609375 3.46875 -0.421875 C 3.082031 -0.0859375 2.65625 0.03125 2.1875 -0.0625 C 1.71875 -0.164062 1.296875 -0.40625 0.921875 -0.78125 C 0.453125 -1.289062 0.179688 -1.835938 0.109375 -2.421875 C 0.0351562 -3.015625 0.0234375 -3.617188 0.078125 -4.234375 C 0.492188 -7.160156 0.992188 -10.054688 1.578125 -12.921875 C 2.171875 -15.796875 2.820312 -18.671875 3.53125 -21.546875 C 4.1875 -24.179688 4.84375 -26.78125 5.5 -29.34375 C 6.164062 -31.914062 6.851562 -34.5 7.5625 -37.09375 C 8.03125 -38.6875 8.535156 -40.257812 9.078125 -41.8125 C 9.617188 -43.375 10.195312 -44.90625 10.8125 -46.40625 C 11.226562 -47.539062 11.765625 -48.285156 12.421875 -48.640625 C 13.085938 -48.992188 14.035156 -49.171875 15.265625 -49.171875 C 16.671875 -49.171875 18.09375 -49.203125 19.53125 -49.265625 C 20.96875 -49.335938 22.414062 -49.375 23.875 -49.375 C 24.914062 -49.375 25.941406 -49.375 26.953125 -49.375 C 27.960938 -49.375 28.984375 -49.328125 30.015625 -49.234375 C 32.273438 -49.046875 34.09375 -47.941406 35.46875 -45.921875 C 37.019531 -43.847656 37.910156 -41.75 38.140625 -39.625 C 38.378906 -37.507812 38.179688 -35.484375 37.546875 -33.546875 C 36.910156 -31.617188 36.023438 -29.878906 34.890625 -28.328125 C 32.679688 -25.316406 30.046875 -23.1875 26.984375 -21.9375 C 23.921875 -20.6875 20.554688 -20.226562 16.890625 -20.5625 C 16.367188 -20.601562 15.847656 -20.738281 15.328125 -20.96875 C 14.804688 -21.207031 14.3125 -21.445312 13.84375 -21.6875 Z M 15.96875 -43.234375 C 15.207031 -40.785156 14.484375 -38.335938 13.796875 -35.890625 C 13.117188 -33.441406 12.546875 -30.875 12.078125 -28.1875 C 12.597656 -28 13.046875 -27.878906 13.421875 -27.828125 C 13.796875 -27.785156 14.101562 -27.644531 14.34375 -27.40625 C 15.375 -26.65625 16.453125 -26.253906 17.578125 -26.203125 C 18.710938 -26.160156 19.867188 -26.113281 21.046875 -26.0625 C 23.171875 -26.0625 25.046875 -26.578125 26.671875 -27.609375 C 28.296875 -28.648438 29.613281 -30.003906 30.625 -31.671875 C 31.632812 -33.347656 32.28125 -35.082031 32.5625 -36.875 C 32.75 -37.90625 32.664062 -38.867188 32.3125 -39.765625 C 31.957031 -40.660156 31.476562 -41.488281 30.875 -42.25 C 30.351562 -42.90625 29.738281 -43.289062 29.03125 -43.40625 C 28.320312 -43.519531 27.566406 -43.578125 26.765625 -43.578125 C 26.160156 -43.578125 25.550781 -43.597656 24.9375 -43.640625 C 24.320312 -43.691406 23.6875 -43.71875 23.03125 -43.71875 C 21.894531 -43.675781 20.738281 -43.664062 19.5625 -43.6875 C 18.382812 -43.707031 17.1875 -43.554688 15.96875 -43.234375 Z M 15.96875 -43.234375 "/></g></g></g><g fill="#82c2e6" fill-opacity="1"><g transform="translate(327.590617, 208.23507)"><g><path d="M 1.625 -19.21875 C 2.238281 -20.90625 3.085938 -22.46875 4.171875 -23.90625 C 5.253906 -25.34375 6.5 -26.695312 7.90625 -27.96875 C 7.0625 -30.75 6.894531 -33.304688 7.40625 -35.640625 C 7.925781 -37.972656 9.015625 -40.148438 10.671875 -42.171875 C 11.847656 -43.585938 13.175781 -44.773438 14.65625 -45.734375 C 16.144531 -46.703125 17.757812 -47.46875 19.5 -48.03125 C 20.863281 -48.5 22.265625 -48.828125 23.703125 -49.015625 C 25.140625 -49.210938 26.585938 -49.238281 28.046875 -49.09375 C 30.585938 -48.8125 32.660156 -47.613281 34.265625 -45.5 C 34.492188 -45.207031 34.691406 -44.863281 34.859375 -44.46875 C 35.023438 -44.070312 35.128906 -43.679688 35.171875 -43.296875 C 35.316406 -42.078125 34.847656 -41.160156 33.765625 -40.546875 C 33.296875 -40.265625 32.835938 -40.191406 32.390625 -40.328125 C 31.941406 -40.472656 31.503906 -40.6875 31.078125 -40.96875 C 30.847656 -41.15625 30.613281 -41.378906 30.375 -41.640625 C 30.132812 -41.898438 29.898438 -42.148438 29.671875 -42.390625 C 29.015625 -43.234375 28.25 -43.785156 27.375 -44.046875 C 26.5 -44.304688 25.546875 -44.316406 24.515625 -44.078125 C 22.160156 -43.648438 20.050781 -42.882812 18.1875 -41.78125 C 16.332031 -40.675781 14.835938 -39.015625 13.703125 -36.796875 C 13.328125 -36.046875 13.066406 -35.257812 12.921875 -34.4375 C 12.785156 -33.613281 12.859375 -32.726562 13.140625 -31.78125 C 13.566406 -31.78125 13.976562 -31.78125 14.375 -31.78125 C 14.769531 -31.78125 15.160156 -31.828125 15.546875 -31.921875 C 18.222656 -32.628906 20.929688 -32.84375 23.671875 -32.5625 C 24.179688 -32.519531 24.707031 -32.414062 25.25 -32.25 C 25.789062 -32.082031 26.296875 -31.859375 26.765625 -31.578125 C 27.660156 -31.109375 28.273438 -30.4375 28.609375 -29.5625 C 28.941406 -28.6875 28.976562 -27.8125 28.71875 -26.9375 C 28.457031 -26.070312 27.878906 -25.359375 26.984375 -24.796875 C 25.804688 -24.085938 24.582031 -23.5 23.3125 -23.03125 C 22.039062 -22.5625 20.675781 -22.441406 19.21875 -22.671875 C 18.039062 -22.859375 16.835938 -23.070312 15.609375 -23.3125 C 14.390625 -23.550781 13.144531 -23.765625 11.875 -23.953125 C 10.5 -23.054688 9.398438 -21.890625 8.578125 -20.453125 C 7.753906 -19.015625 7.109375 -17.519531 6.640625 -15.96875 C 6.078125 -14.082031 6.078125 -12.382812 6.640625 -10.875 C 7.203125 -9.375 8.117188 -8.175781 9.390625 -7.28125 C 10.660156 -6.382812 12.078125 -5.910156 13.640625 -5.859375 C 15.847656 -5.816406 17.726562 -6.191406 19.28125 -6.984375 C 20.832031 -7.785156 22.195312 -9.015625 23.375 -10.671875 C 23.664062 -11.085938 23.953125 -11.484375 24.234375 -11.859375 C 24.515625 -12.242188 24.816406 -12.597656 25.140625 -12.921875 C 25.378906 -13.160156 25.660156 -13.328125 25.984375 -13.421875 C 26.316406 -13.515625 26.648438 -13.585938 26.984375 -13.640625 C 27.503906 -13.734375 27.953125 -13.601562 28.328125 -13.25 C 28.703125 -12.894531 28.914062 -12.457031 28.96875 -11.9375 C 29.007812 -11.1875 28.972656 -10.445312 28.859375 -9.71875 C 28.742188 -8.988281 28.445312 -8.289062 27.96875 -7.625 C 26.507812 -5.601562 24.835938 -3.894531 22.953125 -2.5 C 21.066406 -1.113281 18.804688 -0.375 16.171875 -0.28125 C 15.421875 -0.238281 14.664062 -0.226562 13.90625 -0.25 C 13.15625 -0.269531 12.40625 -0.28125 11.65625 -0.28125 C 9.582031 -0.28125 7.816406 -0.796875 6.359375 -1.828125 C 4.898438 -2.867188 3.628906 -4.191406 2.546875 -5.796875 C 1.128906 -7.960938 0.429688 -10.175781 0.453125 -12.4375 C 0.484375 -14.695312 0.875 -16.957031 1.625 -19.21875 Z M 1.625 -19.21875 "/></g></g></g></svg>